<?xml version="1.0" encoding="UTF-8"?>
<svg width="1237px" height="542px" viewBox="0 0 1237 542" version="1.1" xmlns="http://www.w3.org/2000/svg" xmlns:xlink="http://www.w3.org/1999/xlink">
    <!-- Generator: Sketch 51.3 (57544) - http://www.bohemiancoding.com/sketch -->
    <title>faitesletri.fr copy</title>
    <desc>Created with Sketch.</desc>
    <defs></defs>
    <g id="Page-1" stroke="none" stroke-width="1" fill="none" fill-rule="evenodd">
        <g id="Artboard" transform="translate(-899.000000, -868.000000)" fill="#2ECC71">
            <path d="M1801.17283,1137.56432 C1809.61259,1114.5794 1830.06201,1077.5926 1841.96493,1060.86418 C1846.86914,1054.32523 1850.79251,1053.67133 1855.04283,1058.57555 C1861.25484,1065.1145 1863.87042,1079.17325 1855.36978,1095.52064 C1849.15777,1109.57939 1834.11818,1134.10047 1828.56007,1147.17837 C1825.61754,1154.69817 1823.9828,1161.56407 1823.9828,1166.79524 C1823.9828,1172.0264 1825.29059,1174.96893 1828.88702,1174.96893 C1841.96493,1174.96893 1858.96621,1153.06343 1869.10158,1130.83099 C1871.71717,1124.94593 1875.96749,1125.59982 1878.91002,1131.48488 C1881.85255,1137.04299 1881.5256,1145.21669 1877.27528,1153.71733 C1867.46685,1174.31503 1844.90745,1188.04684 1825.61754,1188.04684 C1811.73275,1188.04684 1803.23586,1182.50047 1799.3546,1173.61422 C1788.7357,1183.03675 1774.78841,1188.70073 1762.18969,1188.70073 C1741.59198,1188.70073 1729.82186,1173.66114 1729.82186,1155.02512 C1729.82186,1149.79395 1730.80271,1144.23584 1733.09134,1137.36994 C1738.64945,1120.69561 1753.03515,1100.7518 1765.45916,1085.7122 C1756.30463,1089.63558 1747.15009,1091.27032 1739.95724,1091.59726 C1718.37869,1139.98552 1684.70308,1188.04684 1649.39273,1188.04684 C1635.33914,1188.04684 1622.79092,1179.01463 1618.55015,1163.392 C1603.98082,1177.90879 1582.82331,1188.10807 1562.09769,1188.37378 C1540.50789,1188.60593 1525.84121,1178.61822 1519.15104,1163.44345 C1508.58179,1174.59098 1491.16504,1187.39294 1472.18707,1187.39294 C1456.36566,1187.39294 1445.27664,1180.19149 1441.36839,1165.9518 C1428.43877,1179.98806 1410.42532,1187.61401 1391.43099,1188.37378 C1371.96597,1189.02262 1352.50094,1183.87714 1341.34069,1163.67435 C1326.78126,1178.04087 1305.76397,1188.1098 1285.17298,1188.37378 C1266.39183,1188.57573 1252.8497,1181.0439 1245.24,1169.09135 C1235.36782,1178.81855 1221.45835,1188.04684 1205.72469,1188.04684 C1192.80686,1188.04684 1181.16091,1180.23384 1176.06947,1166.91052 C1164.65602,1179.96876 1147.93749,1188.04684 1133.1423,1188.04684 C1118.51491,1188.04684 1109.86716,1181.89133 1106.29611,1172.16011 C1096.24965,1181.95617 1083.10886,1189.02768 1070.36834,1189.02768 C1054.02096,1189.02768 1044.53947,1180.52704 1041.92389,1168.42997 C1032.44241,1177.58451 1017.72976,1187.71989 1004.65185,1187.71989 C989.194639,1187.71989 979.405608,1178.69278 976.125868,1165.18054 C969.195329,1172.19184 959.821611,1179.40601 949.397692,1183.46957 C944.493477,1215.83739 930.107778,1253.10943 914.414288,1273.05324 C907.875334,1281.22693 901.33638,1285.1503 892.835739,1285.1503 C880.411726,1285.1503 865.045184,1265.53344 865.045184,1240.35847 C865.045184,1173.66114 946.78211,1038.30479 984.054149,982.069783 C986.015835,979.127253 988.631417,977.492515 990.920051,977.492515 C994.843423,977.492515 1000.40153,983.377573 1000.40153,994.820743 C1000.40153,1003.97528 996.478162,1015.41845 986.996678,1032.09278 C973.264875,1056.28691 951.359378,1091.27032 935.665889,1122.0034 C951.359378,1127.56151 953.321065,1146.52448 951.686326,1164.17965 C961.821705,1156.00596 970.649293,1143.255 977.515195,1128.8693 C978.779378,1126.34093 980.407141,1124.62052 982.114478,1123.82166 C984.828743,1117.70558 988.308847,1111.55316 992.554789,1105.65601 C1018.71061,1068.05703 1045.52032,1052.69049 1062.19465,1052.69049 C1073.96477,1052.69049 1081.15762,1058.57555 1084.10015,1067.07619 L1090.31215,1056.94081 C1094.23553,1050.40185 1099.79364,1050.07491 1103.71701,1054.65217 C1109.27512,1061.19113 1112.21765,1075.57683 1103.71701,1092.57811 C1095.21637,1110.56023 1067.75276,1146.19753 1067.75276,1168.10303 C1067.75276,1173.00724 1069.06055,1175.94977 1072.33003,1175.94977 C1083.31765,1175.94977 1098.29417,1156.57515 1109.01423,1136.71041 C1117.63881,1113.67314 1137.73309,1077.38696 1149.48969,1060.86418 C1154.3939,1054.32523 1158.31728,1053.67133 1162.5676,1058.57555 C1168.7796,1065.1145 1171.39518,1079.17325 1162.89454,1095.52064 C1156.68254,1109.57939 1141.64294,1134.10047 1136.08483,1147.17837 C1133.1423,1154.69817 1131.50756,1161.56407 1131.50756,1166.79524 C1131.50756,1172.0264 1132.81535,1174.96893 1136.41178,1174.96893 C1149.48969,1174.96893 1166.49097,1153.06343 1176.62635,1130.83099 C1177.15098,1129.65055 1177.74139,1128.7332 1178.37383,1128.06837 C1178.84496,1126.83304 1179.35193,1125.57408 1179.89582,1124.29203 C1186.43478,1108.2716 1198.85879,1082.44273 1211.9367,1058.90249 C1201.80132,1057.5947 1195.91626,1053.99828 1193.30068,1050.07491 C1192.88162,1049.44631 1192.52833,1048.84787 1192.23805,1048.27957 C1190.58459,1054.40317 1186.21832,1058.90249 1179.89582,1058.90249 C1169.4335,1058.90249 1160.60591,1049.09406 1160.60591,1038.95868 C1160.60591,1029.80415 1167.47181,1021.30351 1174.99161,1021.30351 C1183.80259,1021.30351 1192.3107,1032.20678 1192.93688,1041.47871 C1194.36754,1040.5451 1196.62721,1040.14102 1199.51269,1040.26647 C1207.03248,1040.59342 1215.86007,1040.26647 1223.05292,1039.61258 C1233.1883,1021.9574 1240.0542,1011.16813 1247.574,1000.37885 C1252.47821,993.186005 1256.40159,993.512952 1259.99801,999.724959 C1262.28665,1003.64833 1263.59444,1009.20644 1263.59444,1013.12981 C1263.59444,1019.01487 1262.28665,1026.53467 1258.36327,1035.68921 C1268.49865,1036.997 1274.05676,1042.22816 1276.3454,1046.15153 C1279.61487,1052.03659 1277.32624,1055.95996 1269.47949,1054.97912 C1263.59444,1054.32523 1255.0938,1054.97912 1247.90095,1055.95996 C1235.47693,1077.21156 1216.84091,1109.57939 1205.39774,1134.42741 C1201.47437,1143.255 1199.51269,1151.75564 1199.51269,1158.94849 C1199.51269,1168.75692 1202.78216,1175.62282 1208.34027,1175.62282 C1216.98593,1175.62282 1228.92674,1164.88609 1238.68105,1150.9009 C1238.28996,1148.21993 1238.09252,1145.4473 1238.09252,1142.60111 C1238.09252,1130.83099 1241.36199,1118.08003 1248.22789,1105.00212 C1265.22917,1070.34566 1291.71194,1053.01743 1310.67491,1053.01743 C1315.25217,1053.01743 1318.8486,1053.67133 1322.11808,1055.63302 C1331.27261,1060.86418 1337.81156,1066.09534 1342.38883,1072.6343 C1344.35052,1075.57683 1345.65831,1080.48104 1345.65831,1084.73136 C1345.65831,1104.34822 1323.75281,1138.67773 1294.98142,1138.67773 C1287.13467,1138.67773 1279.28793,1136.3891 1271.76813,1131.48488 C1269.80644,1138.02384 1268.8256,1144.88974 1268.8256,1150.7748 C1268.8256,1165.1605 1274.71066,1175.29588 1284.51909,1175.29588 C1304.34704,1175.29588 1322.30132,1159.89016 1335.5578,1143.36551 C1335.53461,1142.78242 1335.52293,1142.20037 1335.52293,1141.62026 C1335.52293,1131.81183 1338.79241,1122.33035 1345.98526,1116.11834 C1352.52421,1110.56023 1357.42843,1112.19497 1358.40927,1120.04171 C1369.19854,1104.67517 1380.64171,1087.67389 1389.14235,1073.61514 C1390.45015,1061.84502 1394.37352,1054.32523 1401.89331,1048.11322 C1407.12448,1043.53595 1413.00954,1041.24732 1417.91375,1041.24732 C1426.74134,1041.24732 1428.70303,1048.44017 1418.56765,1065.1145 C1418.2407,1069.03787 1417.91375,1074.59598 1417.91375,1078.8463 C1417.91375,1102.05959 1422.16407,1123.31119 1421.51018,1140.96637 C1421.18323,1149.14006 1419.54849,1158.2946 1415.95207,1165.48744 C1427.59912,1157.53336 1436.03747,1148.34516 1441.91049,1135.56381 C1441.97463,1135.29404 1442.04042,1135.0242 1442.10788,1134.75436 C1454.85884,1080.48104 1491.80393,1019.99572 1523.84481,986.320103 C1530.05682,980.108096 1535.94187,978.14641 1542.15388,984.031469 C1549.34673,990.243475 1552.94315,999.398011 1552.94315,1007.89865 C1552.94315,1012.47592 1552.61621,1016.07234 1550.98147,1021.63045 C1540.84609,1060.53723 1505.20879,1099.11706 1476.43739,1118.40698 C1469.89844,1135.08131 1465.64812,1149.79395 1465.64812,1161.23712 C1465.64812,1169.08387 1467.6098,1174.64198 1471.86012,1174.64198 C1485.83878,1174.64198 1503.2068,1155.71803 1515.56347,1134.14652 C1516.75308,1124.81813 1519.90068,1115.00578 1525.1526,1105.00212 C1542.15388,1070.34566 1568.63664,1053.01743 1587.59961,1053.01743 C1592.17688,1053.01743 1595.7733,1053.67133 1599.04278,1055.63302 C1608.19732,1060.86418 1614.73627,1066.09534 1619.31354,1072.6343 C1621.27522,1075.57683 1622.58302,1080.48104 1622.58302,1084.73136 C1622.58302,1104.34822 1600.67752,1138.67773 1571.90612,1138.67773 C1564.05938,1138.67773 1556.21263,1136.3891 1548.69283,1131.48488 C1546.73115,1138.02384 1545.7503,1144.88974 1545.7503,1150.7748 C1545.7503,1165.1605 1551.63536,1175.29588 1561.44379,1175.29588 C1585.12784,1175.29588 1606.13858,1153.31535 1619.66297,1133.70261 C1620.51007,1130.69997 1621.58244,1127.55979 1622.90996,1124.29203 C1629.77586,1108.59854 1642.85377,1082.11578 1655.60473,1059.22944 C1646.77715,1057.5947 1639.25735,1053.67133 1636.64177,1049.74796 C1632.71839,1043.53595 1635.33398,1039.93953 1643.50767,1040.26647 C1652.00831,1040.92037 1658.54726,1040.59342 1663.77843,1039.93953 C1670.97128,1030.78499 1682.0875,1013.78371 1690.58814,1000.7058 C1695.8193,992.859057 1701.70436,993.512952 1704.31994,1001.03275 C1705.95468,1005.28307 1706.93552,1009.20644 1706.93552,1013.12981 C1706.93552,1019.66877 1705.30078,1027.51551 1701.37741,1036.997 C1710.8589,1038.63174 1713.80143,1043.8629 1716.74395,1048.76711 C1719.68648,1053.67133 1714.78227,1056.28691 1708.89721,1056.28691 C1703.3391,1056.28691 1696.4732,1055.95996 1691.24203,1056.28691 L1684.37613,1067.73008 C1672.93296,1087.02 1658.87421,1111.86802 1648.41188,1134.75436 C1644.81546,1143.58195 1642.85377,1151.75564 1642.85377,1158.94849 C1642.85377,1168.75692 1646.4502,1175.29588 1652.00831,1175.29588 C1669.66348,1175.29588 1701.37741,1137.04299 1720.66733,1088.65473 C1715.10922,1085.38526 1712.49363,1080.15409 1712.49363,1074.59598 C1712.49363,1057.92165 1733.41829,1032.41973 1744.53451,1032.41973 C1752.38125,1032.41973 1755.32378,1036.67005 1755.32378,1043.8629 C1755.32378,1051.3827 1753.3621,1060.53723 1748.45788,1071.65345 C1756.95852,1069.69177 1767.0939,1064.78755 1776.57538,1057.92165 C1782.78739,1053.67133 1786.71076,1053.01743 1790.30719,1057.5947 C1794.88446,1063.15281 1800.44257,1071.65345 1800.44257,1079.82715 C1800.44257,1083.42357 1798.80783,1088.00084 1795.2114,1092.57811 C1780.17181,1109.25244 1764.47832,1130.50404 1758.92021,1147.50532 C1757.28547,1152.08259 1756.95852,1156.65986 1756.95852,1161.56407 C1756.95852,1170.06471 1759.24716,1175.62282 1764.15137,1175.62282 C1774.80106,1175.62282 1790.83114,1158.63213 1801.17283,1137.56433 Z M929.453882,1170.39166 C931.088621,1164.5066 931.742516,1160.58323 931.742516,1153.71733 C931.742516,1141.62026 930.434725,1136.3891 928.146091,1137.36994 C925.857457,1138.35079 923.895771,1151.10175 923.895771,1158.62154 C923.895771,1164.5066 924.876614,1168.42997 929.453882,1170.39166 Z M887.931524,1253.76332 C887.931524,1259.97533 888.912367,1264.87955 890.874053,1264.87955 C897.739955,1264.87955 915.068183,1223.03024 924.222719,1186.4121 C918.33766,1185.10431 912.779549,1182.48873 909.183124,1178.56535 C896.759112,1209.29844 887.931524,1238.39678 887.931524,1253.76332 Z M982.114478,1123.82166 C977.304568,1134.65989 974.899613,1145.38401 974.899613,1154.37122 C974.899613,1158.20392 975.312639,1161.83011 976.125868,1165.18054 C982.020592,1159.21712 986.147862,1153.40046 987.650574,1149.79395 C990.593103,1142.27416 992.554789,1135.08131 990.593103,1129.5232 C988.684906,1124.01063 985.264276,1122.34788 982.114478,1123.82166 Z M1008.90217,1173.33419 C1019.69145,1173.33419 1034.73104,1153.39038 1050.75148,1125.92677 C1063.50244,1103.69433 1069.3875,1087.67389 1069.3875,1079.17325 C1069.3875,1075.24988 1068.7336,1072.96124 1065.46413,1072.96124 C1058.92517,1072.96124 1036.36578,1093.55895 1019.69145,1120.36866 C1009.88302,1135.7352 1004.32491,1153.06343 1004.32491,1163.52576 C1004.32491,1169.41082 1005.6327,1173.33419 1008.90217,1173.33419 Z M1106.29611,1172.16011 C1111.97622,1166.62157 1116.66719,1160.2121 1119.73745,1153.71733 C1124.31471,1144.23584 1122.35303,1135.40826 1121.04524,1132.46573 C1117.77576,1125.59982 1114.83323,1125.92677 1111.23681,1132.46573 C1110.51952,1133.87856 1109.77767,1135.29573 1109.01423,1136.71041 C1108.76447,1137.37756 1108.52432,1138.0336 1108.29428,1138.67773 C1105.67869,1147.17837 1104.3709,1154.04428 1104.3709,1160.25628 C1104.3709,1164.614 1104.99819,1168.62323 1106.29611,1172.16011 Z M1178.37383,1128.06837 C1174.88006,1137.2292 1173.35687,1145.09054 1173.35687,1151.42869 C1173.35687,1157.17053 1174.33115,1162.36169 1176.06947,1166.91052 C1179.53683,1162.94347 1182.51458,1158.51679 1184.80004,1153.71733 C1189.05036,1145.21669 1189.37731,1137.04299 1186.43478,1131.48488 C1184.08247,1126.78026 1180.89439,1125.41871 1178.37383,1128.06837 Z M1192.93688,1041.47871 C1190.98047,1042.75542 1190.57432,1045.02237 1192.23805,1048.27957 C1192.72217,1046.48661 1192.97373,1044.5544 1192.97373,1042.55511 C1192.97373,1042.19928 1192.9613,1041.84024 1192.93688,1041.47871 Z M1245.24,1169.09135 C1252.60003,1161.83941 1257.71607,1154.31017 1259.67106,1150.1209 C1263.26749,1142.60111 1264.57528,1137.69689 1262.94054,1130.83099 C1260.65191,1122.0034 1253.13211,1122.6573 1249.53568,1130.50404 C1246.67744,1136.62885 1245.11432,1140.95752 1241.7154,1146.33293 C1240.73314,1147.88638 1239.71948,1149.41205 1238.68105,1150.9009 C1239.66405,1157.6394 1241.87044,1163.79876 1245.24,1169.09135 Z M1321.13723,1071.65345 C1316.23302,1067.73008 1292.03889,1087.67389 1276.3454,1119.06087 C1278.96098,1120.69561 1281.24961,1121.3495 1283.53825,1121.3495 C1291.38499,1121.3495 1301.84732,1111.54107 1308.38627,1102.71349 C1317.86775,1089.96253 1324.73366,1074.59598 1321.13723,1071.65345 Z M1335.5578,1143.36551 C1335.83532,1150.34098 1337.76206,1157.46602 1341.08104,1163.19881 C1341.16708,1163.35824 1341.25364,1163.51675 1341.34069,1163.67435 C1344.8131,1160.24794 1347.91818,1156.57708 1350.56253,1152.73648 C1356.44758,1143.9089 1356.12064,1134.42741 1355.13979,1131.48488 C1352.52421,1124.94593 1348.27389,1125.59982 1344.67747,1130.83099 C1341.96927,1134.92631 1338.9141,1139.18178 1335.5578,1143.36551 Z M1380.31477,1173.00724 C1387.18067,1173.00724 1390.1232,1156.65986 1390.1232,1135.40826 C1390.1232,1124.94593 1389.79625,1114.4836 1389.14235,1105.65601 C1381.29561,1118.08003 1372.14107,1132.13878 1362.33264,1146.19753 C1366.25602,1161.56407 1373.12192,1173.00724 1380.31477,1173.00724 Z M1534.63408,1016.07234 C1533.32629,1015.41845 1524.82565,1028.16941 1513.70943,1047.45932 C1505.20879,1061.84502 1490.82309,1086.3661 1488.53446,1091.92421 C1502.59321,1078.19241 1513.70943,1063.15281 1521.22923,1050.40185 C1532.34545,1031.76583 1536.59577,1017.38013 1534.63408,1016.07234 Z M1515.56347,1134.14652 C1515.19789,1137.01326 1515.01722,1139.83428 1515.01722,1142.60111 C1515.01722,1150.18505 1516.41907,1157.24673 1519.15104,1163.44345 C1523.87689,1158.45903 1527.23373,1153.80538 1528.74902,1150.7748 C1532.99934,1141.94721 1533.32629,1134.42741 1532.0185,1129.5232 C1529.72987,1121.02256 1522.53702,1121.02256 1518.2867,1129.19625 C1517.41027,1130.85685 1516.5013,1132.50931 1515.56347,1134.14652 Z M1598.06194,1071.65345 C1593.15772,1067.73008 1568.96359,1087.67389 1553.2701,1119.06087 C1555.88568,1120.69561 1558.17432,1121.3495 1560.46295,1121.3495 C1568.3097,1121.3495 1578.77202,1111.54107 1585.31098,1102.71349 C1594.79246,1089.96253 1601.65836,1074.59598 1598.06194,1071.65345 Z M1618.55015,1163.392 C1621.90771,1160.04655 1624.91538,1156.4718 1627.48723,1152.73648 C1633.37229,1143.9089 1633.04534,1134.42741 1632.0645,1131.48488 C1629.44892,1124.94593 1625.1986,1125.59982 1621.60217,1130.83099 C1620.97424,1131.78055 1620.32765,1132.73872 1619.66297,1133.70261 C1617.79794,1140.31347 1617.0249,1146.2576 1617.0249,1151.42869 C1617.0249,1155.75369 1617.562,1159.75176 1618.55015,1163.392 Z M1853.08115,1038.95868 C1853.08115,1029.80415 1859.94705,1021.30351 1867.46685,1021.30351 C1876.62138,1021.30351 1885.44897,1033.07362 1885.44897,1042.55511 C1885.44897,1051.3827 1880.54475,1058.90249 1872.37106,1058.90249 C1861.90874,1058.90249 1853.08115,1049.09406 1853.08115,1038.95868 Z M1801.17283,1137.56432 C1801.03517,1137.93923 1800.9007,1138.31042 1800.76951,1138.67773 C1798.15393,1147.17837 1796.84614,1154.04428 1796.84614,1160.25628 C1796.84614,1165.22269 1797.6609,1169.73646 1799.3546,1173.61422 C1805.26988,1168.36539 1810.15233,1161.95025 1813.19353,1154.69817 C1817.1169,1145.21669 1816.13606,1136.71605 1814.50132,1132.79267 C1811.88574,1125.27288 1806.32763,1126.58067 1803.3851,1132.79267 C1802.6823,1134.4023 1801.94335,1135.99463 1801.17283,1137.56433 Z M1891.98792,1188.70073 C1884.14118,1185.7582 1881.19865,1174.96893 1885.12202,1166.79524 C1889.69929,1156.65986 1899.83467,1151.42869 1908.00836,1154.37122 C1915.85511,1156.9868 1918.47069,1166.46829 1914.54732,1175.94977 C1910.62394,1185.7582 1899.83467,1191.64326 1891.98792,1188.70073 Z M2038.13355,1032.09278 C2015.24721,1069.69177 1999.55372,1096.17453 1986.80276,1121.67645 C2004.13099,1127.88846 2007.40046,1155.35207 2006.74657,1165.1605 C2023.4209,1150.7748 2039.76829,1121.3495 2051.5384,1088.65473 C2044.6725,1085.05831 2042.05692,1079.82715 2042.05692,1073.28819 C2042.05692,1056.28691 2062.32768,1032.41973 2072.79,1032.41973 C2079.65591,1032.41973 2082.92538,1036.997 2082.92538,1044.84374 C2082.92538,1051.70964 2081.29064,1061.51807 2077.69422,1071.9804 C2086.84876,1070.34566 2095.67634,1065.76839 2106.46562,1057.92165 C2112.35068,1053.67133 2116.27405,1052.36354 2120.52437,1057.26775 C2125.10164,1062.82587 2130.65975,1071.65345 2130.65975,1079.82715 C2130.65975,1083.75052 2129.02501,1088.00084 2125.10164,1092.57811 C2110.38899,1108.2716 2095.02245,1130.50404 2089.46434,1147.17837 C2087.8296,1152.08259 2086.84876,1156.65986 2086.84876,1161.56407 C2086.84876,1169.73776 2089.79129,1175.62282 2094.36855,1175.62282 C2105.15783,1175.62282 2123.79385,1156.00596 2134.25617,1132.79267 C2136.87175,1125.92677 2141.44902,1125.27288 2145.37239,1132.79267 C2147.00713,1136.3891 2147.66103,1144.88974 2143.73766,1154.69817 C2135.56396,1174.64198 2111.36983,1188.37378 2092.07992,1188.37378 C2071.48221,1188.37378 2060.03904,1173.66114 2060.03904,1155.02512 C2060.03904,1149.79395 2061.01989,1144.23584 2063.30852,1137.36994 C2068.53968,1120.69561 2082.59844,1101.07875 2095.02245,1086.03915 C2088.48349,1088.32779 2076.71338,1091.27032 2070.82832,1091.59726 C2057.42346,1129.85015 2033.88323,1168.75692 2004.78488,1181.83483 C1998.89982,1214.85655 1983.20633,1251.80164 1967.1859,1271.74545 C1960.31999,1280.24609 1953.78104,1283.51557 1947.24209,1283.51557 C1941.03008,1283.51557 1936.12586,1280.24609 1931.22165,1276.32272 C1923.70185,1270.11071 1915.85511,1260.30228 1915.85511,1241.01236 C1915.85511,1237.41594 1916.18205,1232.83867 1916.83595,1228.9153 C1927.62522,1158.2946 1999.55372,1034.70836 2035.51797,982.069783 C2040.42218,974.549985 2046.30724,975.530829 2049.24977,982.723678 C2050.55756,986.64705 2051.5384,990.897371 2051.5384,994.820743 C2051.5384,1003.64833 2047.61503,1016.72624 2038.13355,1032.09278 Z M1980.2638,1133.77352 C1978.30212,1133.77352 1976.01348,1149.79395 1976.01348,1157.31375 C1976.01348,1163.85271 1976.66738,1169.41082 1978.62907,1172.0264 C1979.93686,1165.1605 1980.59075,1158.62154 1980.9177,1152.40954 C1981.57159,1142.60111 1981.24465,1133.77352 1980.2638,1133.77352 Z M1939.39534,1253.76332 C1939.39534,1259.97533 1940.37618,1262.59091 1942.33787,1262.59091 C1948.54988,1262.59091 1966.532,1222.70329 1975.35959,1185.7582 C1969.14758,1184.77736 1964.24337,1182.16178 1960.64694,1178.56535 C1948.22293,1209.62538 1939.39534,1238.39678 1939.39534,1253.76332 Z" id="faitesletri.fr-copy" transform="translate(1505.850526, 1131.006406) rotate(-12.000000) translate(-1505.850526, -1131.006406) "></path>
        </g>
    </g>
</svg>